<?xml version="1.0" encoding="utf-8"?>
<svg viewBox="44.1 35.9 45 45" xmlns="http://www.w3.org/2000/svg">
  <g>
    <circle style="fill: rgb(43, 45, 66);" cx="66.6" cy="58.4" r="22.5"/>
    <path d="M 54.628 65.439 L 54.428 65.989 C 53.648 65.756 53.061 65.379 52.668 64.859 C 52.275 64.339 52.078 63.646 52.078 62.779 L 52.078 61.249 C 52.078 60.036 51.545 59.429 50.478 59.429 L 50.478 58.699 C 51.545 58.699 52.078 58.096 52.078 56.889 L 52.078 55.309 C 52.085 54.462 52.281 53.776 52.668 53.249 C 53.055 52.729 53.641 52.352 54.428 52.119 L 54.608 52.659 C 53.481 53.026 52.918 53.932 52.918 55.379 L 52.918 56.849 C 52.918 57.989 52.491 58.726 51.638 59.059 C 52.491 59.419 52.918 60.156 52.918 61.269 L 52.918 62.849 C 52.931 64.196 53.501 65.059 54.628 65.439 ZM 62.795 63.189 L 59.425 63.189 L 59.425 53.089 L 62.405 53.089 C 63.485 53.089 64.305 53.312 64.865 53.759 C 65.425 54.206 65.705 54.866 65.705 55.739 C 65.705 56.259 65.562 56.712 65.275 57.099 C 64.989 57.486 64.599 57.762 64.105 57.929 C 64.692 58.056 65.165 58.342 65.525 58.789 C 65.885 59.242 66.065 59.762 66.065 60.349 C 66.065 61.242 65.775 61.939 65.195 62.439 C 64.622 62.939 63.822 63.189 62.795 63.189 Z M 62.905 58.339 L 60.275 58.339 L 60.275 62.469 L 62.835 62.469 C 63.562 62.469 64.139 62.282 64.565 61.909 C 64.999 61.536 65.215 61.019 65.215 60.359 C 65.215 59.739 65.009 59.246 64.595 58.879 C 64.189 58.519 63.625 58.339 62.905 58.339 Z M 60.275 53.819 L 60.275 57.619 L 62.605 57.619 C 63.319 57.606 63.869 57.439 64.255 57.119 C 64.649 56.799 64.845 56.332 64.845 55.719 C 64.845 55.066 64.642 54.586 64.235 54.279 C 63.829 53.972 63.219 53.819 62.405 53.819 L 60.275 53.819 ZM 74.787 53.089 L 74.787 53.819 L 71.327 53.819 L 71.327 63.189 L 70.467 63.189 L 70.467 53.819 L 67.017 53.819 L 67.017 53.089 L 74.787 53.089 ZM 78.846 65.989 L 78.646 65.439 C 79.772 65.059 80.342 64.196 80.356 62.849 L 80.356 61.299 C 80.356 60.126 80.802 59.382 81.696 59.069 C 80.802 58.756 80.356 58.019 80.356 56.859 L 80.356 55.379 C 80.356 53.919 79.792 53.012 78.666 52.659 L 78.846 52.119 C 79.639 52.352 80.229 52.732 80.616 53.259 C 81.002 53.792 81.196 54.489 81.196 55.349 L 81.196 56.889 C 81.196 58.096 81.729 58.699 82.796 58.699 L 82.796 59.429 C 81.729 59.429 81.196 60.036 81.196 61.249 L 81.196 62.779 C 81.196 63.646 80.999 64.339 80.606 64.859 C 80.212 65.379 79.626 65.756 78.846 65.989 Z" transform="matrix(1, 0, 0, 1, 0, 0)" style="fill: rgb(255, 255, 255); white-space: pre;"/>
  </g>
</svg>