<?xml version="1.0" encoding="utf-8"?>
<svg viewBox="50 49.966 41.5 41.5" xmlns="http://www.w3.org/2000/svg">
  <g>
    <rect x="50" y="49.966" width="41.5" height="41.5" style="fill: rgb(254, 254, 254);"/>
    <path d="M 58.665 78.223 L 58.465 78.773 C 57.685 78.54 57.098 78.163 56.705 77.643 C 56.312 77.123 56.115 76.43 56.115 75.563 L 56.115 74.033 C 56.115 72.82 55.582 72.213 54.515 72.213 L 54.515 71.483 C 55.582 71.483 56.115 70.88 56.115 69.673 L 56.115 68.093 C 56.122 67.246 56.318 66.56 56.705 66.033 C 57.092 65.513 57.678 65.136 58.465 64.903 L 58.645 65.443 C 57.518 65.81 56.955 66.716 56.955 68.163 L 56.955 69.633 C 56.955 70.773 56.528 71.51 55.675 71.843 C 56.528 72.203 56.955 72.94 56.955 74.053 L 56.955 75.633 C 56.968 76.98 57.538 77.843 58.665 78.223 ZM 66.832 75.973 L 63.462 75.973 L 63.462 65.873 L 66.442 65.873 C 67.522 65.873 68.342 66.096 68.902 66.543 C 69.462 66.99 69.742 67.65 69.742 68.523 C 69.742 69.043 69.599 69.496 69.312 69.883 C 69.026 70.27 68.636 70.546 68.142 70.713 C 68.729 70.84 69.202 71.126 69.562 71.573 C 69.922 72.026 70.102 72.546 70.102 73.133 C 70.102 74.026 69.812 74.723 69.232 75.223 C 68.659 75.723 67.859 75.973 66.832 75.973 Z M 66.942 71.123 L 64.312 71.123 L 64.312 75.253 L 66.872 75.253 C 67.599 75.253 68.176 75.066 68.602 74.693 C 69.036 74.32 69.252 73.803 69.252 73.143 C 69.252 72.523 69.046 72.03 68.632 71.663 C 68.226 71.303 67.662 71.123 66.942 71.123 Z M 64.312 66.603 L 64.312 70.403 L 66.642 70.403 C 67.356 70.39 67.906 70.223 68.292 69.903 C 68.686 69.583 68.882 69.116 68.882 68.503 C 68.882 67.85 68.679 67.37 68.272 67.063 C 67.866 66.756 67.256 66.603 66.442 66.603 L 64.312 66.603 ZM 78.824 65.873 L 78.824 66.603 L 75.364 66.603 L 75.364 75.973 L 74.504 75.973 L 74.504 66.603 L 71.054 66.603 L 71.054 65.873 L 78.824 65.873 ZM 82.883 78.773 L 82.683 78.223 C 83.809 77.843 84.379 76.98 84.393 75.633 L 84.393 74.083 C 84.393 72.91 84.839 72.166 85.733 71.853 C 84.839 71.54 84.393 70.803 84.393 69.643 L 84.393 68.163 C 84.393 66.703 83.829 65.796 82.703 65.443 L 82.883 64.903 C 83.676 65.136 84.266 65.516 84.653 66.043 C 85.039 66.576 85.233 67.273 85.233 68.133 L 85.233 69.673 C 85.233 70.88 85.766 71.483 86.833 71.483 L 86.833 72.213 C 85.766 72.213 85.233 72.82 85.233 74.033 L 85.233 75.563 C 85.233 76.43 85.036 77.123 84.643 77.643 C 84.249 78.163 83.663 78.54 82.883 78.773 Z" transform="matrix(1, 0, 0, 1, 0, 0)" style="fill: rgb(43, 45, 66); white-space: pre;"/>
  </g>
</svg>