<?xml version="1.0" encoding="utf-8"?>
<svg viewBox="167.75 102.422 73.609 41.094" xmlns="http://www.w3.org/2000/svg">
  <path d="M 179.14 140.427 L 178.65 141.787 C 176.737 141.22 175.293 140.294 174.32 139.007 C 173.353 137.72 172.87 136.01 172.87 133.877 L 172.87 130.097 C 172.87 127.104 171.553 125.607 168.92 125.607 L 168.92 123.827 C 171.553 123.827 172.87 122.34 172.87 119.367 L 172.87 115.457 C 172.883 113.37 173.367 111.684 174.32 110.397 C 175.28 109.11 176.723 108.177 178.65 107.597 L 179.09 108.947 C 176.31 109.834 174.92 112.06 174.92 115.627 L 174.92 119.267 C 174.92 122.067 173.873 123.884 171.78 124.717 C 173.873 125.597 174.92 127.41 174.92 130.157 L 174.92 134.047 C 174.967 137.374 176.373 139.5 179.14 140.427 Z" transform="matrix(1, 0, 0, 1, 0, 0)" style="fill: rgb(43, 45, 66); white-space: pre;"/>
  <path d="M 196.435 134.887 L 189.305 134.887 L 189.305 113.557 L 195.595 113.557 C 197.882 113.557 199.615 114.03 200.795 114.977 C 201.982 115.917 202.575 117.304 202.575 119.137 C 202.575 120.244 202.275 121.204 201.675 122.017 C 201.075 122.83 200.252 123.414 199.205 123.767 C 200.445 124.04 201.442 124.65 202.195 125.597 C 202.955 126.544 203.335 127.637 203.335 128.877 C 203.335 130.764 202.725 132.237 201.505 133.297 C 200.292 134.357 198.602 134.887 196.435 134.887 Z M 196.655 124.637 L 191.105 124.637 L 191.105 133.367 L 196.505 133.367 C 198.052 133.367 199.275 132.974 200.175 132.187 C 201.082 131.4 201.535 130.307 201.535 128.907 C 201.535 127.594 201.102 126.554 200.235 125.787 C 199.368 125.02 198.175 124.637 196.655 124.637 Z M 191.105 115.097 L 191.105 123.127 L 196.025 123.127 C 197.525 123.094 198.688 122.74 199.515 122.067 C 200.342 121.387 200.755 120.397 200.755 119.097 C 200.755 117.73 200.328 116.72 199.475 116.067 C 198.622 115.42 197.328 115.097 195.595 115.097 L 191.105 115.097 ZM 221.76 113.557 L 221.76 115.097 L 214.45 115.097 L 214.45 134.887 L 212.65 134.887 L 212.65 115.097 L 205.35 115.097 L 205.35 113.557 L 221.76 113.557 Z" transform="matrix(1, 0, 0, 1, 0, 0)" style="fill: rgb(43, 45, 66); white-space: pre;"/>
  <path d="M 230.446 141.787 L 229.946 140.427 C 232.72 139.5 234.13 137.374 234.176 134.047 L 234.176 130.217 C 234.176 127.337 235.273 125.51 237.466 124.737 C 235.273 123.964 234.176 122.147 234.176 119.287 L 234.176 115.647 C 234.176 112.047 232.786 109.814 230.006 108.947 L 230.446 107.597 C 232.393 108.177 233.843 109.12 234.796 110.427 C 235.75 111.727 236.226 113.437 236.226 115.557 L 236.226 119.367 C 236.226 122.34 237.54 123.827 240.166 123.827 L 240.166 125.607 C 237.54 125.607 236.226 127.104 236.226 130.097 L 236.226 133.877 C 236.226 136.01 235.74 137.72 234.766 139.007 C 233.8 140.294 232.36 141.22 230.446 141.787 Z" transform="matrix(1, 0, 0, 1, 0, 0)" style="fill: rgb(43, 45, 66); white-space: pre;"/>
</svg>