<?xml version="1.0" encoding="utf-8"?>
<svg viewBox="85 211.953 190.031 81.953" xmlns="http://www.w3.org/2000/svg">
    <g>
        <path d="M 126.026 252.529 L 118.896 252.529 L 118.896 231.199 L 125.186 231.199 C 127.473 231.199 129.206 231.672 130.386 232.619 C 131.573 233.559 132.166 234.946 132.166 236.779 C 132.166 237.886 131.866 238.846 131.266 239.659 C 130.666 240.472 129.843 241.056 128.796 241.409 C 130.036 241.682 131.033 242.292 131.786 243.239 C 132.546 244.186 132.926 245.279 132.926 246.519 C 132.926 248.406 132.316 249.879 131.096 250.939 C 129.883 251.999 128.193 252.529 126.026 252.529 Z M 126.246 242.279 L 120.696 242.279 L 120.696 251.009 L 126.096 251.009 C 127.643 251.009 128.866 250.616 129.766 249.829 C 130.673 249.042 131.126 247.949 131.126 246.549 C 131.126 245.236 130.693 244.196 129.826 243.429 C 128.959 242.662 127.766 242.279 126.246 242.279 Z M 120.696 232.739 L 120.696 240.769 L 125.616 240.769 C 127.116 240.736 128.279 240.382 129.106 239.709 C 129.933 239.029 130.346 238.039 130.346 236.739 C 130.346 235.372 129.919 234.362 129.066 233.709 C 128.213 233.062 126.919 232.739 125.186 232.739 L 120.696 232.739 ZM 136.277 252.529 L 136.277 251.009 L 149.767 251.009 L 149.767 252.529 L 136.277 252.529 Z M 137.697 242.569 L 137.697 241.029 L 148.217 241.029 L 148.217 242.569 L 137.697 242.569 Z M 136.457 232.739 L 136.457 231.199 L 149.357 231.199 L 149.357 232.739 L 136.457 232.739 ZM 169.916 231.199 L 169.916 252.529 L 168.116 252.529 L 155.856 234.279 L 155.856 252.529 L 154.046 252.529 L 154.046 231.199 L 155.856 231.199 L 168.136 249.469 L 168.136 231.199 L 169.916 231.199 Z"
              transform="matrix(1, 0, 0, 1, -0.1875, -0.625)" style="fill: rgb(43, 45, 66); white-space: pre;"/>
        <path d="M 174.762 251.479 C 174.762 251.132 174.872 250.839 175.092 250.599 C 175.312 250.359 175.618 250.239 176.012 250.239 C 176.405 250.239 176.712 250.359 176.932 250.599 C 177.158 250.839 177.272 251.132 177.272 251.479 C 177.272 251.819 177.158 252.099 176.932 252.319 C 176.712 252.539 176.405 252.649 176.012 252.649 C 175.618 252.649 175.312 252.539 175.092 252.319 C 174.872 252.099 174.762 251.819 174.762 251.479 ZM 184.694 231.199 L 184.694 252.529 L 182.894 252.529 L 182.894 231.199 L 184.694 231.199 ZM 204.531 231.199 L 204.531 232.739 L 197.221 232.739 L 197.221 252.529 L 195.421 252.529 L 195.421 232.739 L 188.121 232.739 L 188.121 231.199 L 204.531 231.199 Z"
              transform="matrix(1, 0, 0, 1, -0.1875, -0.625)" style="fill: rgb(239, 35, 60); white-space: pre;"/>
        <path d="M 133.366 261.199 L 133.366 262.739 L 126.056 262.739 L 126.056 282.529 L 124.256 282.529 L 124.256 262.739 L 116.956 262.739 L 116.956 261.199 L 133.366 261.199 ZM 149.928 282.529 L 144.768 273.649 L 138.578 273.649 L 138.578 282.529 L 136.758 282.529 L 136.758 261.199 L 143.688 261.199 C 145.961 261.199 147.738 261.752 149.018 262.859 C 150.298 263.959 150.938 265.502 150.938 267.489 C 150.938 268.856 150.538 270.059 149.738 271.099 C 148.938 272.146 147.865 272.869 146.518 273.269 L 151.848 282.339 L 151.848 282.529 L 149.928 282.529 Z M 138.578 262.739 L 138.578 272.109 L 144.098 272.109 C 145.611 272.109 146.828 271.682 147.748 270.829 C 148.661 269.969 149.118 268.856 149.118 267.489 C 149.118 265.982 148.641 264.816 147.688 263.989 C 146.728 263.156 145.385 262.739 143.658 262.739 L 138.578 262.739 Z"
              transform="matrix(1, 0, 0, 1, -0.1875, -0.625)" style="fill: rgb(43, 45, 66); white-space: pre;"/>
        <path d="M 169.538 282.529 L 162.798 263.839 L 156.088 282.529 L 154.148 282.529 L 161.938 261.199 L 163.678 261.199 L 171.488 282.529 L 169.538 282.529 ZM 175.003 261.199 L 181.713 279.889 L 181.823 280.349 L 181.963 279.889 L 188.663 261.199 L 190.643 261.199 L 182.703 282.529 L 180.973 282.529 L 173.033 261.199 L 175.003 261.199 Z"
              transform="matrix(1, 0, 0, 1, -0.1875, -0.625)" style="fill: rgb(239, 35, 60); white-space: pre;"/>
        <path d="M 192.781 282.529 L 192.781 281.009 L 206.271 281.009 L 206.271 282.529 L 192.781 282.529 Z M 194.201 272.569 L 194.201 271.029 L 204.721 271.029 L 204.721 272.569 L 194.201 272.569 Z M 192.961 262.739 L 192.961 261.199 L 205.861 261.199 L 205.861 262.739 L 192.961 262.739 ZM 223.671 282.529 L 218.511 273.649 L 212.321 273.649 L 212.321 282.529 L 210.501 282.529 L 210.501 261.199 L 217.431 261.199 C 219.704 261.199 221.481 261.752 222.761 262.859 C 224.041 263.959 224.681 265.502 224.681 267.489 C 224.681 268.856 224.281 270.059 223.481 271.099 C 222.681 272.146 221.607 272.869 220.261 273.269 L 225.591 282.339 L 225.591 282.529 L 223.671 282.529 Z M 212.321 262.739 L 212.321 272.109 L 217.841 272.109 C 219.354 272.109 220.571 271.682 221.491 270.829 C 222.404 269.969 222.861 268.856 222.861 267.489 C 222.861 265.982 222.384 264.816 221.431 263.989 C 220.471 263.156 219.127 262.739 217.401 262.739 L 212.321 262.739 ZM 241.66 277.289 C 241.66 276.102 241.244 275.166 240.41 274.479 C 239.584 273.792 238.064 273.139 235.85 272.519 C 233.644 271.899 232.034 271.222 231.02 270.489 C 229.574 269.456 228.85 268.099 228.85 266.419 C 228.85 264.786 229.524 263.459 230.87 262.439 C 232.21 261.419 233.927 260.909 236.02 260.909 C 237.434 260.909 238.7 261.182 239.82 261.729 C 240.934 262.276 241.8 263.036 242.42 264.009 C 243.034 264.989 243.34 266.079 243.34 267.279 L 241.52 267.279 C 241.52 265.826 241.024 264.656 240.03 263.769 C 239.037 262.889 237.7 262.449 236.02 262.449 C 234.387 262.449 233.087 262.812 232.12 263.539 C 231.154 264.266 230.67 265.216 230.67 266.389 C 230.67 267.469 231.104 268.352 231.97 269.039 C 232.844 269.719 234.237 270.322 236.15 270.849 C 238.064 271.369 239.514 271.909 240.5 272.469 C 241.487 273.036 242.227 273.709 242.72 274.489 C 243.22 275.269 243.47 276.192 243.47 277.259 C 243.47 278.939 242.8 280.286 241.46 281.299 C 240.114 282.312 238.344 282.819 236.15 282.819 C 234.644 282.819 233.264 282.552 232.01 282.019 C 230.757 281.479 229.804 280.726 229.15 279.759 C 228.504 278.792 228.18 277.686 228.18 276.439 L 229.98 276.439 C 229.98 277.939 230.544 279.126 231.67 279.999 C 232.79 280.866 234.284 281.299 236.15 281.299 C 237.81 281.299 239.144 280.932 240.15 280.199 C 241.157 279.466 241.66 278.496 241.66 277.289 Z"
              transform="matrix(1, 0, 0, 1, -0.1875, -0.625)" style="fill: rgb(43, 45, 66); white-space: pre;"/>
        <path d="M 107.638 290.376 L 106.948 291.946 C 103.301 290.806 100.575 288.949 98.768 286.376 C 96.955 283.803 96.048 280.409 96.048 276.196 L 96.048 267.956 C 96.048 261.529 93.201 258.316 87.508 258.316 L 87.508 256.056 C 93.201 256.056 96.048 252.866 96.048 246.486 L 96.048 238.046 C 96.068 233.833 96.985 230.439 98.798 227.866 C 100.611 225.286 103.328 223.429 106.948 222.296 L 107.468 223.826 C 101.088 225.899 97.898 230.766 97.898 238.426 L 97.898 246.216 C 97.898 252.416 95.491 256.073 90.678 257.186 C 95.491 258.393 97.898 262.049 97.898 268.156 L 97.898 275.986 C 97.898 283.393 101.145 288.189 107.638 290.376 Z"
              transform="matrix(1, 0, 0, 1, 0, 0)" style="fill: rgb(43, 45, 66); white-space: pre;"/>
        <path d="M 253.112 291.983 L 252.462 290.413 C 258.935 288.206 262.172 283.456 262.172 276.163 L 262.172 268.193 C 262.172 262.086 264.575 258.43 269.382 257.223 C 264.575 256.11 262.172 252.453 262.172 246.253 L 262.172 238.493 C 262.172 230.793 258.992 225.916 252.632 223.863 L 253.112 222.333 C 256.759 223.466 259.475 225.316 261.262 227.883 C 263.049 230.443 263.965 233.786 264.012 237.913 L 264.012 246.423 C 264.012 252.87 266.862 256.093 272.562 256.093 L 272.562 258.353 C 266.862 258.353 264.012 261.6 264.012 268.093 L 264.012 276.193 C 264.012 280.433 263.119 283.833 261.332 286.393 C 259.545 288.96 256.805 290.823 253.112 291.983 Z"
              transform="matrix(1, 0, 0, 1, 0, 0)" style="fill: rgb(43, 45, 66); white-space: pre;"/>
    </g>
</svg>