<?xml version="1.0" encoding="utf-8"?>
<svg viewBox="173.922 22.563 262.563 41.094" xmlns="http://www.w3.org/2000/svg">
    <path d="M 185.315 60.56 L 184.825 61.92 C 182.912 61.353 181.468 60.427 180.495 59.14 C 179.528 57.853 179.045 56.143 179.045 54.01 L 179.045 50.23 C 179.045 47.237 177.728 45.74 175.095 45.74 L 175.095 43.96 C 177.728 43.96 179.045 42.473 179.045 39.5 L 179.045 35.59 C 179.058 33.503 179.542 31.817 180.495 30.53 C 181.455 29.243 182.898 28.31 184.825 27.73 L 185.265 29.08 C 182.485 29.967 181.095 32.193 181.095 35.76 L 181.095 39.4 C 181.095 42.2 180.048 44.017 177.955 44.85 C 180.048 45.73 181.095 47.543 181.095 50.29 L 181.095 54.18 C 181.142 57.507 182.548 59.633 185.315 60.56 Z"
          transform="matrix(1, 0, 0, 1, 0, 0)" style="fill: rgb(43, 45, 66); white-space: pre;"/>
    <path d="M 202.608 55.02 L 195.478 55.02 L 195.478 33.69 L 201.768 33.69 C 204.055 33.69 205.788 34.163 206.968 35.11 C 208.155 36.05 208.748 37.437 208.748 39.27 C 208.748 40.377 208.448 41.337 207.848 42.15 C 207.248 42.963 206.425 43.547 205.378 43.9 C 206.618 44.173 207.615 44.783 208.368 45.73 C 209.128 46.677 209.508 47.77 209.508 49.01 C 209.508 50.897 208.898 52.37 207.678 53.43 C 206.465 54.49 204.775 55.02 202.608 55.02 Z M 202.828 44.77 L 197.278 44.77 L 197.278 53.5 L 202.678 53.5 C 204.225 53.5 205.448 53.107 206.348 52.32 C 207.255 51.533 207.708 50.44 207.708 49.04 C 207.708 47.727 207.275 46.687 206.408 45.92 C 205.542 45.153 204.348 44.77 202.828 44.77 Z M 197.278 35.23 L 197.278 43.26 L 202.198 43.26 C 203.698 43.227 204.862 42.873 205.688 42.2 C 206.515 41.52 206.928 40.53 206.928 39.23 C 206.928 37.863 206.502 36.853 205.648 36.2 C 204.795 35.553 203.502 35.23 201.768 35.23 L 197.278 35.23 ZM 212.857 55.02 L 212.857 53.5 L 226.347 53.5 L 226.347 55.02 L 212.857 55.02 Z M 214.277 45.06 L 214.277 43.52 L 224.797 43.52 L 224.797 45.06 L 214.277 45.06 Z M 213.037 35.23 L 213.037 33.69 L 225.937 33.69 L 225.937 35.23 L 213.037 35.23 ZM 246.496 33.69 L 246.496 55.02 L 244.696 55.02 L 232.436 36.77 L 232.436 55.02 L 230.626 55.02 L 230.626 33.69 L 232.436 33.69 L 244.716 51.96 L 244.716 33.69 L 246.496 33.69 Z"
          transform="matrix(1, 0, 0, 1, 0, 0)" style="fill: rgb(43, 45, 66); white-space: pre;"/>
    <path d="M 251.339 53.97 C 251.339 53.623 251.449 53.33 251.669 53.09 C 251.889 52.85 252.196 52.73 252.589 52.73 C 252.982 52.73 253.289 52.85 253.509 53.09 C 253.736 53.33 253.849 53.623 253.849 53.97 C 253.849 54.31 253.736 54.59 253.509 54.81 C 253.289 55.03 252.982 55.14 252.589 55.14 C 252.196 55.14 251.889 55.03 251.669 54.81 C 251.449 54.59 251.339 54.31 251.339 53.97 ZM 261.27 33.69 L 261.27 55.02 L 259.47 55.02 L 259.47 33.69 L 261.27 33.69 ZM 281.107 33.69 L 281.107 35.23 L 273.797 35.23 L 273.797 55.02 L 271.997 55.02 L 271.997 35.23 L 264.697 35.23 L 264.697 33.69 L 281.107 33.69 Z"
          transform="matrix(1, 0, 0, 1, 0, 0)" style="fill: rgb(239, 35, 60); white-space: pre;"/>
    <path d="M 306.31 33.69 L 306.31 35.23 L 299 35.23 L 299 55.02 L 297.2 55.02 L 297.2 35.23 L 289.9 35.23 L 289.9 33.69 L 306.31 33.69 ZM 322.871 55.02 L 317.711 46.14 L 311.521 46.14 L 311.521 55.02 L 309.701 55.02 L 309.701 33.69 L 316.631 33.69 C 318.904 33.69 320.681 34.243 321.961 35.35 C 323.241 36.45 323.881 37.993 323.881 39.98 C 323.881 41.347 323.481 42.55 322.681 43.59 C 321.881 44.637 320.808 45.36 319.461 45.76 L 324.791 54.83 L 324.791 55.02 L 322.871 55.02 Z M 311.521 35.23 L 311.521 44.6 L 317.041 44.6 C 318.554 44.6 319.771 44.173 320.691 43.32 C 321.604 42.46 322.061 41.347 322.061 39.98 C 322.061 38.473 321.584 37.307 320.631 36.48 C 319.671 35.647 318.328 35.23 316.601 35.23 L 311.521 35.23 Z"
          transform="matrix(1, 0, 0, 1, 0, 0)" style="fill: rgb(43, 45, 66); white-space: pre;"/>
    <path d="M 342.479 55.02 L 335.739 36.33 L 329.029 55.02 L 327.089 55.02 L 334.879 33.69 L 336.619 33.69 L 344.429 55.02 L 342.479 55.02 ZM 347.943 33.69 L 354.653 52.38 L 354.763 52.84 L 354.903 52.38 L 361.603 33.69 L 363.583 33.69 L 355.643 55.02 L 353.913 55.02 L 345.973 33.69 L 347.943 33.69 Z"
          transform="matrix(1, 0, 0, 1, 0, 0)" style="fill: rgb(239, 35, 60); white-space: pre;"/>
    <path d="M 365.719 55.02 L 365.719 53.5 L 379.209 53.5 L 379.209 55.02 L 365.719 55.02 Z M 367.139 45.06 L 367.139 43.52 L 377.659 43.52 L 377.659 45.06 L 367.139 45.06 Z M 365.899 35.23 L 365.899 33.69 L 378.799 33.69 L 378.799 35.23 L 365.899 35.23 ZM 396.607 55.02 L 391.447 46.14 L 385.257 46.14 L 385.257 55.02 L 383.437 55.02 L 383.437 33.69 L 390.367 33.69 C 392.64 33.69 394.417 34.243 395.697 35.35 C 396.977 36.45 397.617 37.993 397.617 39.98 C 397.617 41.347 397.217 42.55 396.417 43.59 C 395.617 44.637 394.544 45.36 393.197 45.76 L 398.527 54.83 L 398.527 55.02 L 396.607 55.02 Z M 385.257 35.23 L 385.257 44.6 L 390.777 44.6 C 392.29 44.6 393.507 44.173 394.427 43.32 C 395.34 42.46 395.797 41.347 395.797 39.98 C 395.797 38.473 395.32 37.307 394.367 36.48 C 393.407 35.647 392.064 35.23 390.337 35.23 L 385.257 35.23 ZM 414.595 49.78 C 414.595 48.593 414.179 47.657 413.345 46.97 C 412.519 46.283 410.999 45.63 408.785 45.01 C 406.579 44.39 404.969 43.713 403.955 42.98 C 402.509 41.947 401.785 40.59 401.785 38.91 C 401.785 37.277 402.459 35.95 403.805 34.93 C 405.145 33.91 406.862 33.4 408.955 33.4 C 410.369 33.4 411.635 33.673 412.755 34.22 C 413.869 34.767 414.735 35.527 415.355 36.5 C 415.969 37.48 416.275 38.57 416.275 39.77 L 414.455 39.77 C 414.455 38.317 413.959 37.147 412.965 36.26 C 411.972 35.38 410.635 34.94 408.955 34.94 C 407.322 34.94 406.022 35.303 405.055 36.03 C 404.089 36.757 403.605 37.707 403.605 38.88 C 403.605 39.96 404.039 40.843 404.905 41.53 C 405.779 42.21 407.172 42.813 409.085 43.34 C 410.999 43.86 412.449 44.4 413.435 44.96 C 414.422 45.527 415.162 46.2 415.655 46.98 C 416.155 47.76 416.405 48.683 416.405 49.75 C 416.405 51.43 415.735 52.777 414.395 53.79 C 413.049 54.803 411.279 55.31 409.085 55.31 C 407.579 55.31 406.199 55.043 404.945 54.51 C 403.692 53.97 402.739 53.217 402.085 52.25 C 401.439 51.283 401.115 50.177 401.115 48.93 L 402.915 48.93 C 402.915 50.43 403.479 51.617 404.605 52.49 C 405.725 53.357 407.219 53.79 409.085 53.79 C 410.745 53.79 412.079 53.423 413.085 52.69 C 414.092 51.957 414.595 50.987 414.595 49.78 Z"
          transform="matrix(1, 0, 0, 1, 0, 0)" style="fill: rgb(43, 45, 66); white-space: pre;"/>
    <path d="M 425.532 61.92 L 425.032 60.56 C 427.806 59.633 429.216 57.507 429.262 54.18 L 429.262 50.35 C 429.262 47.47 430.359 45.643 432.552 44.87 C 430.359 44.097 429.262 42.28 429.262 39.42 L 429.262 35.78 C 429.262 32.18 427.872 29.947 425.092 29.08 L 425.532 27.73 C 427.479 28.31 428.929 29.253 429.882 30.56 C 430.836 31.86 431.312 33.57 431.312 35.69 L 431.312 39.5 C 431.312 42.473 432.626 43.96 435.252 43.96 L 435.252 45.74 C 432.626 45.74 431.312 47.237 431.312 50.23 L 431.312 54.01 C 431.312 56.143 430.826 57.853 429.852 59.14 C 428.886 60.427 427.446 61.353 425.532 61.92 Z"
          transform="matrix(1, 0, 0, 1, 0, 0)" style="fill: rgb(43, 45, 66); white-space: pre;"/>
</svg>